<svg width="176" height="55" viewBox="0 0 176 55" fill="none" xmlns="http://www.w3.org/2000/svg">
<g filter="url(#filter0_d_257_2)">
<path d="M32.9565 12.2408C32.9565 5.48038 38.4369 0 45.1973 0V0C51.9577 0 57.4381 5.48039 57.4381 12.2408V34.7592C57.4381 41.5196 51.9577 47 45.1973 47V47C38.4369 47 32.9565 41.5196 32.9565 34.7592V12.2408Z" fill="#00A1FC"/>
</g>
<g filter="url(#filter1_d_257_2)">
<path d="M61.2174 10.9523C61.2174 4.9035 66.1209 0 72.1697 0V0C78.2184 0 83.1219 4.9035 83.1219 10.9523V36.0477C83.1219 42.0965 78.2184 47 72.1697 47V47C66.1209 47 61.2174 42.0965 61.2174 36.0477V10.9523Z" fill="#FC0000"/>
</g>
<g filter="url(#filter2_d_257_2)">
<path d="M25.6943 34H20.9717V21.4697L17.5313 29.5566H14.294L10.8535 21.4697V34H6.38477V15.0967H11.8565L16.0459 24.4277L20.2227 15.0967H25.6943V34ZM88.5234 34L94.9092 15.0967H100.089L106.475 34H101.587L100.406 30.1406H94.4648L93.2842 34H88.5234ZM99.3652 26.7129L97.4355 20.4795L95.5059 26.7129H99.3652ZM130.037 29.5947H127.485V34.0508H122.902V29.5947H114.587V26.0654L122.75 15.0967H127.485V26.1924H130.037V29.5947ZM122.902 26.1924V19.7559L118.116 26.1924H122.902Z" fill="#101010"/>
</g>
<g filter="url(#filter3_d_257_2)">
<mask id="path-4-inside-1_257_2" fill="white">
<path d="M153.817 35L155.175 31.032V31.6382H150.105V31.032L151.302 35L151.119 18.3037H150.308V17.6976H154.161L153.817 35ZM154.344 13.6972C154.344 14.4245 154.168 15.0509 153.817 15.5762C153.479 16.0812 153.059 16.3338 152.559 16.3338C152.072 16.3338 151.653 16.0812 151.302 15.5762C150.95 15.0509 150.775 14.4245 150.775 13.6972C150.775 12.9497 150.95 12.3132 151.302 11.7879C151.653 11.2626 152.072 11 152.559 11C153.059 11 153.479 11.2626 153.817 11.7879C154.168 12.3132 154.344 12.9497 154.344 13.6972Z"/>
<path d="M165.201 18.3037V25.6982C165.201 27.4358 165.248 28.4965 165.342 28.8803C165.437 29.244 165.539 29.5572 165.647 29.8198C165.849 30.3451 166.201 30.6078 166.701 30.6078C167.215 30.6078 167.573 30.5067 167.776 30.3047V30.9108C167.127 31.5977 166.417 31.9412 165.647 31.9412C164.511 31.9412 163.646 31.5371 163.051 30.729C162.456 29.9208 162.158 28.4763 162.158 26.3953V18.3037H160.658V17.6976H162.158C162.807 17.5359 163.382 17.0712 163.882 16.3035C164.383 15.5155 164.727 14.4346 164.917 13.0608H165.201V17.6976H167.553H172L165.201 18.3037Z"/>
</mask>
<path d="M153.817 35L155.175 31.032V31.6382H150.105V31.032L151.302 35L151.119 18.3037H150.308V17.6976H154.161L153.817 35ZM154.344 13.6972C154.344 14.4245 154.168 15.0509 153.817 15.5762C153.479 16.0812 153.059 16.3338 152.559 16.3338C152.072 16.3338 151.653 16.0812 151.302 15.5762C150.95 15.0509 150.775 14.4245 150.775 13.6972C150.775 12.9497 150.95 12.3132 151.302 11.7879C151.653 11.2626 152.072 11 152.559 11C153.059 11 153.479 11.2626 153.817 11.7879C154.168 12.3132 154.344 12.9497 154.344 13.6972Z" fill="black" fill-opacity="0.25" shape-rendering="crispEdges"/>
<path d="M165.201 18.3037V25.6982C165.201 27.4358 165.248 28.4965 165.342 28.8803C165.437 29.244 165.539 29.5572 165.647 29.8198C165.849 30.3451 166.201 30.6078 166.701 30.6078C167.215 30.6078 167.573 30.5067 167.776 30.3047V30.9108C167.127 31.5977 166.417 31.9412 165.647 31.9412C164.511 31.9412 163.646 31.5371 163.051 30.729C162.456 29.9208 162.158 28.4763 162.158 26.3953V18.3037H160.658V17.6976H162.158C162.807 17.5359 163.382 17.0712 163.882 16.3035C164.383 15.5155 164.727 14.4346 164.917 13.0608H165.201V17.6976H167.553H172L165.201 18.3037Z" fill="black" fill-opacity="0.25" shape-rendering="crispEdges"/>
<path d="M153.817 35L147.818 34.8805L159.493 36.9439L153.817 35ZM155.175 31.032H161.175L149.499 29.0882L155.175 31.032ZM155.175 31.6382V37.6382H161.175V31.6382H155.175ZM150.105 31.6382H144.105V37.6382H150.105V31.6382ZM150.105 31.032L155.85 29.2997L144.105 31.032H150.105ZM151.302 35L145.557 36.7323L157.301 34.9344L151.302 35ZM151.119 18.3037L157.119 18.2381L157.054 12.3037H151.119V18.3037ZM150.308 18.3037H144.308V24.3037H150.308V18.3037ZM150.308 17.6976V11.6976H144.308V17.6976H150.308ZM154.161 17.6976L160.16 17.8171L160.282 11.6976H154.161V17.6976ZM153.817 15.5762L148.83 12.2392L148.83 12.2392L153.817 15.5762ZM151.302 15.5762L146.315 18.9131L146.346 18.9587L146.377 19.0036L151.302 15.5762ZM151.302 11.7879L156.288 15.1249L156.288 15.1249L151.302 11.7879ZM153.817 11.7879L148.771 15.0347L148.8 15.0801L148.83 15.1249L153.817 11.7879ZM165.201 18.3037L164.668 12.3274L159.201 12.8147V18.3037H165.201ZM165.342 28.8803L159.517 30.3166L159.526 30.3541L159.536 30.3915L165.342 28.8803ZM165.647 29.8198L171.244 27.6588L171.22 27.5967L171.195 27.5351L165.647 29.8198ZM167.776 30.3047H173.776V15.8583L163.542 26.054L167.776 30.3047ZM167.776 30.9108L172.138 35.0313L173.776 33.2969V30.9108H167.776ZM163.051 30.729L167.883 27.172L167.883 27.172L163.051 30.729ZM162.158 18.3037H168.158V12.3037H162.158V18.3037ZM160.658 18.3037H154.658V24.3037H160.658V18.3037ZM160.658 17.6976V11.6976H154.658V17.6976H160.658ZM162.158 17.6976V23.6976H162.894L163.608 23.5197L162.158 17.6976ZM163.882 16.3035L168.909 19.5791L168.929 19.5494L168.948 19.5194L163.882 16.3035ZM164.917 13.0608V7.06079H159.687L158.973 12.2419L164.917 13.0608ZM165.201 13.0608H171.201V7.06079H165.201V13.0608ZM165.201 17.6976H159.201V23.6976H165.201V17.6976ZM172 17.6976L172.533 23.6739L172 11.6976V17.6976ZM159.493 36.9439L160.852 32.9759L149.499 29.0882L148.14 33.0561L159.493 36.9439ZM149.175 31.032V31.6382H161.175V31.032H149.175ZM155.175 25.6382H150.105V37.6382H155.175V25.6382ZM156.105 31.6382V31.032H144.105V31.6382H156.105ZM144.361 32.7643L145.557 36.7323L157.046 33.2677L155.85 29.2997L144.361 32.7643ZM157.301 34.9344L157.119 18.2381L145.12 18.3693L145.302 35.0656L157.301 34.9344ZM151.119 12.3037H150.308V24.3037H151.119V12.3037ZM156.308 18.3037V17.6976H144.308V18.3037H156.308ZM150.308 23.6976H154.161V11.6976H150.308V23.6976ZM148.163 17.578L147.818 34.8805L159.815 35.1195L160.16 17.8171L148.163 17.578ZM148.344 13.6972C148.344 13.5765 148.359 13.3638 148.435 13.0912C148.514 12.8123 148.643 12.5184 148.83 12.2392L158.803 18.9131C159.911 17.2577 160.344 15.4286 160.344 13.6972H148.344ZM148.83 12.2392C149.036 11.9323 149.447 11.4299 150.152 11.0052C150.899 10.5552 151.744 10.3338 152.559 10.3338V22.3338C155.508 22.3338 157.625 20.6734 158.803 18.9131L148.83 12.2392ZM152.559 10.3338C153.413 10.3338 154.257 10.5715 154.976 11.0052C155.651 11.4115 156.04 11.8812 156.227 12.1487L146.377 19.0036C147.518 20.6432 149.592 22.3338 152.559 22.3338V10.3338ZM156.288 12.2392C156.475 12.5184 156.605 12.8123 156.683 13.0912C156.76 13.3638 156.775 13.5765 156.775 13.6972H144.775C144.775 15.4286 145.208 17.2577 146.315 18.9131L156.288 12.2392ZM156.775 13.6972C156.775 13.9165 156.711 14.4936 156.288 15.1249L146.315 8.45098C145.19 10.1329 144.775 11.9829 144.775 13.6972H156.775ZM156.288 15.1249C156.12 15.377 155.743 15.8571 155.066 16.2812C154.337 16.738 153.462 17 152.559 17V5C149.483 5 147.409 6.81707 146.315 8.45098L156.288 15.1249ZM152.559 17C151.696 17 150.82 16.7555 150.063 16.2812C149.355 15.8379 148.958 15.3247 148.771 15.0347L158.862 8.54122C157.733 6.78694 155.619 5 152.559 5V17ZM148.83 15.1249C148.408 14.4936 148.344 13.9165 148.344 13.6972H160.344C160.344 11.9829 159.929 10.1329 158.803 8.45098L148.83 15.1249ZM159.201 18.3037V25.6982H171.201V18.3037H159.201ZM159.201 25.6982C159.201 26.6079 159.213 27.4071 159.242 28.0644C159.263 28.5432 159.308 29.4695 159.517 30.3166L171.168 27.444C171.215 27.6337 171.236 27.7699 171.243 27.8162C171.251 27.8715 171.253 27.896 171.252 27.8787C171.248 27.8406 171.239 27.7319 171.23 27.5295C171.212 27.126 171.201 26.5261 171.201 25.6982H159.201ZM159.536 30.3915C159.679 30.9398 159.86 31.5248 160.099 32.1046L171.195 27.5351C171.208 27.5675 171.208 27.5713 171.198 27.5397C171.188 27.5088 171.171 27.4532 171.149 27.3692L159.536 30.3915ZM160.049 31.9808C160.444 33.0021 161.168 34.2436 162.471 35.2173C163.826 36.2296 165.346 36.6078 166.701 36.6078V24.6078C167.556 24.6078 168.65 24.8546 169.654 25.6042C170.605 26.3153 171.053 27.1628 171.244 27.6588L160.049 31.9808ZM166.701 36.6078C167.649 36.6078 170.069 36.4895 172.011 34.5554L163.542 26.054C164.351 25.2481 165.209 24.9031 165.727 24.7571C166.236 24.6137 166.6 24.6078 166.701 24.6078V36.6078ZM161.776 30.3047V30.9108H173.776V30.3047H161.776ZM163.415 26.7903C163.494 26.7068 163.727 26.4842 164.144 26.2827C164.584 26.0696 165.105 25.9412 165.647 25.9412V37.9412C168.43 37.9412 170.63 36.6268 172.138 35.0313L163.415 26.7903ZM165.647 25.9412C165.792 25.9412 166.186 25.9689 166.685 26.2017C167.208 26.4462 167.616 26.8101 167.883 27.172L158.219 34.2859C160.105 36.8487 162.892 37.9412 165.647 37.9412V25.9412ZM167.883 27.172C168.095 27.4604 168.198 27.6916 168.239 27.7939C168.279 27.8969 168.277 27.9199 168.258 27.8294C168.24 27.7417 168.214 27.581 168.193 27.3323C168.172 27.0855 168.158 26.7756 168.158 26.3953H156.158C156.158 28.6294 156.395 31.8088 158.219 34.2859L167.883 27.172ZM168.158 26.3953V18.3037H156.158V26.3953H168.158ZM162.158 12.3037H160.658V24.3037H162.158V12.3037ZM166.658 18.3037V17.6976H154.658V18.3037H166.658ZM160.658 23.6976H162.158V11.6976H160.658V23.6976ZM163.608 23.5197C166.2 22.8743 167.891 21.1413 168.909 19.5791L158.855 13.0279C158.873 13.0012 159.415 12.1976 160.708 11.8754L163.608 23.5197ZM168.948 19.5194C170.078 17.7396 170.606 15.7278 170.86 13.8797L158.973 12.2419C158.915 12.6601 158.848 12.9284 158.8 13.0786C158.751 13.2301 158.74 13.2094 158.817 13.0876L168.948 19.5194ZM164.917 19.0608H165.201V7.06079H164.917V19.0608ZM159.201 13.0608V17.6976H171.201V13.0608H159.201ZM165.201 23.6976H167.553V11.6976H165.201V23.6976ZM167.553 23.6976H172V11.6976H167.553V23.6976ZM171.467 11.7212L164.668 12.3274L165.733 24.28L172.533 23.6739L171.467 11.7212Z" fill="black" fill-opacity="0.25" mask="url(#path-4-inside-1_257_2)"/>
</g>
<defs>
<filter id="filter0_d_257_2" x="28.9565" y="0" width="32.4816" height="55" filterUnits="userSpaceOnUse" color-interpolation-filters="sRGB">
<feFlood flood-opacity="0" result="BackgroundImageFix"/>
<feColorMatrix in="SourceAlpha" type="matrix" values="0 0 0 0 0 0 0 0 0 0 0 0 0 0 0 0 0 0 127 0" result="hardAlpha"/>
<feOffset dy="4"/>
<feGaussianBlur stdDeviation="2"/>
<feColorMatrix type="matrix" values="0 0 0 0 0 0 0 0 0 0 0 0 0 0 0 0 0 0 0.25 0"/>
<feBlend mode="normal" in2="BackgroundImageFix" result="effect1_dropShadow_257_2"/>
<feBlend mode="normal" in="SourceGraphic" in2="effect1_dropShadow_257_2" result="shape"/>
</filter>
<filter id="filter1_d_257_2" x="57.2174" y="0" width="29.9046" height="55" filterUnits="userSpaceOnUse" color-interpolation-filters="sRGB">
<feFlood flood-opacity="0" result="BackgroundImageFix"/>
<feColorMatrix in="SourceAlpha" type="matrix" values="0 0 0 0 0 0 0 0 0 0 0 0 0 0 0 0 0 0 127 0" result="hardAlpha"/>
<feOffset dy="4"/>
<feGaussianBlur stdDeviation="2"/>
<feColorMatrix type="matrix" values="0 0 0 0 0 0 0 0 0 0 0 0 0 0 0 0 0 0 0.25 0"/>
<feBlend mode="normal" in2="BackgroundImageFix" result="effect1_dropShadow_257_2"/>
<feBlend mode="normal" in="SourceGraphic" in2="effect1_dropShadow_257_2" result="shape"/>
</filter>
<filter id="filter2_d_257_2" x="2.38477" y="15.0967" width="131.652" height="26.9541" filterUnits="userSpaceOnUse" color-interpolation-filters="sRGB">
<feFlood flood-opacity="0" result="BackgroundImageFix"/>
<feColorMatrix in="SourceAlpha" type="matrix" values="0 0 0 0 0 0 0 0 0 0 0 0 0 0 0 0 0 0 127 0" result="hardAlpha"/>
<feOffset dy="4"/>
<feGaussianBlur stdDeviation="2"/>
<feColorMatrix type="matrix" values="0 0 0 0 0 0 0 0 0 0 0 0 0 0 0 0 0 0 0.25 0"/>
<feBlend mode="normal" in2="BackgroundImageFix" result="effect1_dropShadow_257_2"/>
<feBlend mode="normal" in="SourceGraphic" in2="effect1_dropShadow_257_2" result="shape"/>
</filter>
<filter id="filter3_d_257_2" x="146.105" y="11" width="29.8947" height="32" filterUnits="userSpaceOnUse" color-interpolation-filters="sRGB">
<feFlood flood-opacity="0" result="BackgroundImageFix"/>
<feColorMatrix in="SourceAlpha" type="matrix" values="0 0 0 0 0 0 0 0 0 0 0 0 0 0 0 0 0 0 127 0" result="hardAlpha"/>
<feOffset dy="4"/>
<feGaussianBlur stdDeviation="2"/>
<feComposite in2="hardAlpha" operator="out"/>
<feColorMatrix type="matrix" values="0 0 0 0 0 0 0 0 0 0 0 0 0 0 0 0 0 0 0.25 0"/>
<feBlend mode="normal" in2="BackgroundImageFix" result="effect1_dropShadow_257_2"/>
<feBlend mode="normal" in="SourceGraphic" in2="effect1_dropShadow_257_2" result="shape"/>
</filter>
</defs>
</svg>
